<?xml version="1.0" encoding="utf-8"?>
<!-- Generator: Adobe Illustrator 16.0.0, SVG Export Plug-In . SVG Version: 6.00 Build 0)  -->
<!DOCTYPE svg PUBLIC "-//W3C//DTD SVG 1.1//EN" "http://www.w3.org/Graphics/SVG/1.1/DTD/svg11.dtd">
<svg version="1.1" id="Capa_1" xmlns="http://www.w3.org/2000/svg" xmlns:xlink="http://www.w3.org/1999/xlink" x="0px" y="0px"
	 width="20px" height="20px" viewBox="0 0 20 20" enable-background="new 0 0 20 20" xml:space="preserve">
<g>
	<path fill="#FFFFFF" d="M8.821,6.728c-0.652-1.938-2.742-2.982-4.681-2.33C2.202,5.051,1.118,6.919,1.703,9.127
		c0.256,0.963,1.384,3.675,1.779,4.484c0.796,1.629,2.154,2.271,3.707,1.748c1.555-0.521,2.306-2.045,1.781-3.598
		C8.311,9.795,9.473,8.664,8.821,6.728z"/>
	<path fill="#FFFFFF" d="M7.076,0.244C6.5,0.449,6.092,0.914,5.932,1.458C5.581,0.916,4.891,0.664,4.255,0.89
		c-0.608,0.219-0.979,0.811-0.94,1.428C3.038,2.09,2.655,2.009,2.293,2.138C1.747,2.333,1.462,2.935,1.657,3.481
		C1.66,3.49,1.663,3.498,1.666,3.504C1.486,3.432,1.28,3.422,1.082,3.494c-0.43,0.152-0.652,0.627-0.5,1.058
		c0.033,0.091,0.079,0.172,0.139,0.241c-0.088-0.02-0.183-0.014-0.272,0.019C0.188,4.904,0.053,5.19,0.146,5.451
		s0.379,0.396,0.639,0.304c0.26-0.095,0.396-0.38,0.302-0.64C1.078,5.088,1.066,5.062,1.053,5.039
		c0.184,0.072,0.389,0.082,0.588,0.014C2.049,4.906,2.271,4.47,2.162,4.057c0.25,0.131,0.552,0.162,0.839,0.062
		c0.405-0.146,0.665-0.513,0.694-0.914C4.071,3.606,4.664,3.77,5.217,3.574c0.393-0.143,0.686-0.438,0.834-0.793
		c0.405,0.823,1.373,1.229,2.26,0.914c0.955-0.342,1.451-1.391,1.108-2.343C9.078,0.398,8.029-0.098,7.076,0.244z"/>
	<path fill="#FFFFFF" d="M15.857,8.727c-1.938-0.651-4.027,0.394-4.678,2.33c-0.651,1.938,0.51,3.068-0.152,5.033
		c-0.522,1.553,0.228,3.074,1.779,3.596c1.555,0.523,2.912-0.117,3.709-1.748c0.396-0.807,1.522-3.52,1.777-4.482
		C18.88,11.25,17.795,9.379,15.857,8.727z"/>
	<path fill="#FFFFFF" d="M19.551,9.139c-0.092-0.032-0.187-0.036-0.271-0.019c0.059-0.069,0.104-0.151,0.137-0.242
		c0.154-0.43-0.068-0.903-0.5-1.057c-0.195-0.07-0.4-0.063-0.582,0.01c0.002-0.008,0.006-0.014,0.01-0.022
		c0.194-0.546-0.092-1.147-0.638-1.344c-0.36-0.128-0.744-0.048-1.021,0.179c0.037-0.615-0.332-1.208-0.942-1.426
		c-0.638-0.227-1.324,0.025-1.677,0.568c-0.159-0.545-0.566-1.01-1.144-1.215c-0.952-0.343-2.001,0.153-2.342,1.106
		c-0.34,0.953,0.156,2.002,1.108,2.342c0.885,0.317,1.853-0.089,2.259-0.914c0.147,0.357,0.442,0.652,0.836,0.792
		c0.551,0.197,1.146,0.034,1.519-0.367c0.029,0.4,0.293,0.769,0.693,0.914c0.289,0.103,0.592,0.069,0.842-0.062
		c-0.111,0.413,0.111,0.848,0.52,0.994c0.201,0.069,0.406,0.061,0.589-0.015c-0.013,0.023-0.023,0.049-0.034,0.076
		c-0.096,0.26,0.043,0.547,0.302,0.639c0.263,0.095,0.548-0.041,0.642-0.303C19.945,9.519,19.809,9.232,19.551,9.139z"/>
</g>
</svg>
