<?xml version="1.0" encoding="utf-8"?>
<!-- Generator: Adobe Illustrator 16.0.0, SVG Export Plug-In . SVG Version: 6.00 Build 0)  -->
<!DOCTYPE svg PUBLIC "-//W3C//DTD SVG 1.1//EN" "http://www.w3.org/Graphics/SVG/1.1/DTD/svg11.dtd">
<svg version="1.1" id="Capa_1" xmlns="http://www.w3.org/2000/svg" xmlns:xlink="http://www.w3.org/1999/xlink" x="0px" y="0px"
	 width="20px" height="20px" viewBox="-5 -5 20 20" enable-background="new -5 -5 20 20" xml:space="preserve">
<g>
	<g>
		<path fill="#FFFFFF" d="M11.5,11.602c-0.938,0-1.699,0.762-1.699,1.699S10.563,15,11.5,15s1.699-0.762,1.699-1.699
			S12.438,11.602,11.5,11.602z M11.5,13.801c-0.275,0-0.5-0.223-0.5-0.5c0-0.275,0.225-0.5,0.5-0.5s0.5,0.225,0.5,0.5
			C12,13.578,11.775,13.801,11.5,13.801z"/>
		<path fill="#FFFFFF" d="M11.336,4.534H8.4c-0.221,0-0.4,0.18-0.4,0.4v7.8c0,0.221,0.18,0.4,0.4,0.4h0.424
			c0.199,0,0.373-0.143,0.398-0.338c0.156-1.203,1.117-1.949,2.277-1.949s2.121,0.746,2.277,1.949
			c0.025,0.195,0.199,0.338,0.398,0.338H14.6c0.221,0,0.4-0.18,0.4-0.4V8.835c0-0.095-0.033-0.186-0.094-0.257l-3.262-3.9
			C11.568,4.587,11.455,4.534,11.336,4.534z M8.801,7.734v-2c0-0.221,0.178-0.399,0.398-0.399h1.762
			c0.119,0,0.232,0.053,0.309,0.144l1.666,2c0.217,0.261,0.033,0.656-0.307,0.656h-3.43C8.979,8.135,8.801,7.955,8.801,7.734z"/>
		<path fill="#FFFFFF" d="M-4.6,13.135h1.023c0.198,0,0.374-0.143,0.399-0.338c0.157-1.203,1.116-1.949,2.277-1.949
			c1.16,0,2.12,0.746,2.276,1.949c0.025,0.195,0.201,0.338,0.399,0.338h5.024c0.219,0,0.398-0.18,0.398-0.4v-10
			c0-0.221-0.18-0.399-0.398-0.399H-4.6c-0.222,0-0.4,0.179-0.4,0.399v10C-5,12.955-4.821,13.135-4.6,13.135z"/>
		<path fill="#FFFFFF" d="M-0.9,11.602c-0.938,0-1.699,0.762-1.699,1.699S-1.838,15-0.9,15s1.7-0.762,1.7-1.699
			S0.037,11.602-0.9,11.602z M-0.9,13.801c-0.275,0-0.5-0.223-0.5-0.5c0-0.275,0.225-0.5,0.5-0.5c0.276,0,0.5,0.225,0.5,0.5
			C-0.4,13.578-0.624,13.801-0.9,13.801z"/>
	</g>
</g>
</svg>
