<?xml version="1.0" encoding="utf-8"?>
<!-- Generator: Adobe Illustrator 16.0.0, SVG Export Plug-In . SVG Version: 6.00 Build 0)  -->
<!DOCTYPE svg PUBLIC "-//W3C//DTD SVG 1.1//EN" "http://www.w3.org/Graphics/SVG/1.1/DTD/svg11.dtd">
<svg version="1.1" id="Capa_1" xmlns="http://www.w3.org/2000/svg" xmlns:xlink="http://www.w3.org/1999/xlink" x="0px" y="0px"
	 width="50px" height="50px" viewBox="-5.473 -5.473 50 50" enable-background="new -5.473 -5.473 50 50" xml:space="preserve">
<g>
	<g>
		<path fill="#FFCC00" d="M44.196,20.134c-0.243-0.298-0.608-0.472-0.989-0.472h-4.859c-1.199-3.162-2.759-6.259-4.535-7.429
			c-6.141-4.04-22.428-4.04-28.568,0c-1.776,1.17-3.332,4.271-4.537,7.429H-4.15c-0.386,0-0.749,0.174-0.991,0.472
			c-0.242,0.297-0.339,0.688-0.261,1.065l0.72,3.486c0.123,0.595,0.646,1.019,1.251,1.019h1.438
			c-1.389,1.603-2.063,3.621-2.072,5.641c-0.008,2.493,0.938,4.747,2.67,6.342c0.019,0.018,0.038,0.028,0.056,0.045v4.878
			c0,1.058,0.858,1.917,1.917,1.917h4.48c1.059,0,1.917-0.859,1.917-1.917v-1.96h25.099v1.96c0,1.058,0.859,1.917,1.917,1.917h4.481
			c1.055,0,1.916-0.859,1.916-1.917v-4.781c1.839-1.685,2.717-3.999,2.729-6.312c0.008-2.086-0.697-4.18-2.168-5.814h1.535
			c0.605,0,1.131-0.425,1.252-1.02l0.719-3.486C44.531,20.823,44.439,20.433,44.196,20.134z M7.349,15.435
			c4.895-3.221,19.462-3.221,24.354,0c0.951,0.625,2.174,3.146,3.296,6.233H4.057C5.175,18.582,6.398,16.062,7.349,15.435z
			 M1.616,31.825c0-2.082,1.689-3.769,3.771-3.769c2.084,0,3.771,1.687,3.771,3.769c0,2.083-1.687,3.771-3.771,3.771
			C3.306,35.595,1.616,33.908,1.616,31.825z M33.717,35.595c-2.081,0-3.772-1.688-3.772-3.771c0-2.082,1.691-3.769,3.772-3.769
			c2.084,0,3.771,1.687,3.771,3.769C37.488,33.908,35.799,35.595,33.717,35.595z"/>
	</g>
</g>
</svg>
