<?xml version="1.0" encoding="utf-8"?>
<!-- Generator: Adobe Illustrator 16.0.0, SVG Export Plug-In . SVG Version: 6.00 Build 0)  -->
<!DOCTYPE svg PUBLIC "-//W3C//DTD SVG 1.1//EN" "http://www.w3.org/Graphics/SVG/1.1/DTD/svg11.dtd">
<svg version="1.1" id="Capa_1" xmlns="http://www.w3.org/2000/svg" xmlns:xlink="http://www.w3.org/1999/xlink" x="0px" y="0px"
	 width="20px" height="20px" viewBox="-5 -5 20 20" enable-background="new -5 -5 20 20" xml:space="preserve">
<g>
	<g>
		<g>
			<g>
				<path fill="#FFFFFF" d="M13.698-2.452H-3.753C-4.442-2.452-5-1.894-5-1.205v2.493h19.945v-2.493
					C14.945-1.894,14.389-2.452,13.698-2.452z"/>
				<path fill="#FFFFFF" d="M-3.753,13.754c0,0.689,0.558,1.246,1.246,1.246h14.959c0.688,0,1.246-0.559,1.246-1.246V2.535H-3.753
					V13.754z M2.479,5.028h4.987c0.689,0,1.246,0.558,1.246,1.247c0,0.688-0.557,1.247-1.246,1.247H2.479
					c-0.688,0-1.246-0.56-1.246-1.247C1.233,5.586,1.791,5.028,2.479,5.028z"/>
			</g>
		</g>
	</g>
</g>
</svg>
