<?xml version="1.0" encoding="utf-8"?>
<!-- Generator: Adobe Illustrator 16.0.0, SVG Export Plug-In . SVG Version: 6.00 Build 0)  -->
<!DOCTYPE svg PUBLIC "-//W3C//DTD SVG 1.1//EN" "http://www.w3.org/Graphics/SVG/1.1/DTD/svg11.dtd">
<svg version="1.1" id="Capa_1" xmlns="http://www.w3.org/2000/svg" xmlns:xlink="http://www.w3.org/1999/xlink" x="0px" y="0px"
	 width="20px" height="20px" viewBox="-5 -5 20 20" enable-background="new -5 -5 20 20" xml:space="preserve">
<g>
	<path fill="#FFFFFF" d="M4.999,11.737c-0.379,0-0.687,0.307-0.687,0.686v1.952c0,0.381,0.308,0.688,0.687,0.688
		s0.687-0.307,0.687-0.688v-1.952C5.686,12.044,5.378,11.737,4.999,11.737z"/>
	<path fill="#FFFFFF" d="M4.999-1.736c0.379,0,0.687-0.308,0.687-0.687v-1.953c0-0.379-0.307-0.687-0.687-0.687
		S4.312-4.755,4.312-4.375v1.953C4.312-2.044,4.62-1.736,4.999-1.736z"/>
	<path fill="#FFFFFF" d="M-0.734,9.764l-1.382,1.38c-0.268,0.268-0.268,0.704,0,0.971c0.134,0.134,0.31,0.201,0.486,0.201
		c0.176,0,0.352-0.067,0.485-0.201l1.381-1.38c0.269-0.267,0.269-0.703,0-0.971C-0.031,9.495-0.466,9.495-0.734,9.764z"/>
	<path fill="#FFFFFF" d="M10.247,0.438c0.177,0,0.353-0.067,0.487-0.202l1.38-1.379c0.268-0.269,0.268-0.704,0-0.972
		c-0.267-0.268-0.703-0.268-0.971,0l-1.38,1.381C9.495-0.467,9.495-0.032,9.762,0.236C9.897,0.371,10.072,0.438,10.247,0.438z"/>
	<path fill="#FFFFFF" d="M-1.736,5c0-0.379-0.308-0.687-0.687-0.687h-1.953c-0.379,0-0.687,0.308-0.687,0.687
		s0.308,0.687,0.687,0.687h1.953C-2.044,5.687-1.736,5.379-1.736,5z"/>
	<path fill="#FFFFFF" d="M14.375,4.313h-1.954c-0.377,0-0.686,0.308-0.686,0.687s0.309,0.687,0.686,0.687h1.954
		c0.381,0,0.688-0.307,0.688-0.687S14.756,4.313,14.375,4.313z"/>
	<path fill="#FFFFFF" d="M-0.735,0.236C-0.6,0.371-0.424,0.438-0.249,0.438c0.175,0,0.351-0.067,0.485-0.202
		c0.269-0.267,0.269-0.703,0-0.971l-1.38-1.381c-0.269-0.268-0.704-0.268-0.971,0c-0.268,0.269-0.268,0.704,0,0.972L-0.735,0.236z"
		/>
	<path fill="#FFFFFF" d="M10.734,9.764c-0.267-0.269-0.703-0.269-0.971,0c-0.269,0.268-0.269,0.702,0,0.971l1.38,1.38
		c0.134,0.134,0.311,0.201,0.485,0.201s0.352-0.067,0.485-0.201c0.268-0.267,0.268-0.703,0-0.971L10.734,9.764z"/>
	<path fill="#FFFFFF" d="M5-0.346C2.052-0.346-0.346,2.053-0.346,5c0,2.948,2.397,5.346,5.346,5.346S10.346,7.948,10.346,5
		C10.346,2.053,7.948-0.346,5-0.346z M5,8.972C2.81,8.972,1.028,7.189,1.028,5S2.81,1.028,5,1.028c2.189,0,3.972,1.783,3.972,3.972
		S7.189,8.972,5,8.972z"/>
</g>
</svg>
