<?xml version="1.0" encoding="utf-8"?>
<!-- Generator: Adobe Illustrator 16.0.0, SVG Export Plug-In . SVG Version: 6.00 Build 0)  -->
<!DOCTYPE svg PUBLIC "-//W3C//DTD SVG 1.1//EN" "http://www.w3.org/Graphics/SVG/1.1/DTD/svg11.dtd">
<svg version="1.1" id="Capa_1" xmlns="http://www.w3.org/2000/svg" xmlns:xlink="http://www.w3.org/1999/xlink" x="0px" y="0px"
	 width="20px" height="20px" viewBox="141.229 141.23 20 20" enable-background="new 141.229 141.23 20 20" xml:space="preserve">
<g>
	<g>
		<path fill="#FFFFFF" d="M152.005,158.776c2.55,0,4.622-2.073,4.622-4.622c0-2.548-2.072-4.623-4.622-4.623
			c-2.548,0-4.622,2.074-4.622,4.623C147.383,156.703,149.457,158.776,152.005,158.776z"/>
		<path fill="#FFFFFF" d="M152.005,160.016c3.238,0,5.862-2.624,5.862-5.862s-2.624-5.862-5.862-5.862
			c-3.237,0-5.862,2.624-5.862,5.862S148.768,160.016,152.005,160.016z M152.005,149.189c2.737,0,4.965,2.228,4.965,4.965
			c0,2.737-2.228,4.964-4.965,4.964c-2.736,0-4.964-2.227-4.964-4.964C147.041,151.417,149.269,149.189,152.005,149.189z"/>
		<path fill="#FFFFFF" d="M161.126,160.562l-0.343-13.159c0-0.283-0.229-0.513-0.513-0.513c-0.076,0-0.147,0.018-0.212,0.047v-0.005
			c0,0-0.013,0.009-0.032,0.021c-0.05,0.027-0.093,0.061-0.131,0.102c-0.376,0.307-1.573,1.563-1.673,3.262
			c-0.152,2.591,1.105,3.638,1.534,4.6l-0.342,5.645c0,0.282,0.571,0.513,0.855,0.513
			C160.554,161.075,161.126,160.844,161.126,160.562z"/>
		<path fill="#FFFFFF" d="M142.125,152.546l0.885,0.442c0.101,0.05,0.212,0.087,0.329,0.113l-0.342,7.697
			c0,0.238,0.572,0.431,0.855,0.431c0.284,0,0.855-0.192,0.855-0.431l-0.342-7.735c0.12-0.039,0.237-0.084,0.338-0.146l0.656-0.4
			c0.474-0.289,0.831-0.922,0.831-1.478v-3.449c0-0.283-0.229-0.513-0.513-0.513c-0.283,0-0.513,0.229-0.513,0.513v3.106h-0.285
			v-3.106c0-0.283-0.23-0.513-0.513-0.513c-0.284,0-0.513,0.229-0.513,0.513v3.106h-0.286v-3.106c0-0.283-0.23-0.513-0.513-0.513
			s-0.513,0.229-0.513,0.513v3.106h-0.284v-2.995c0-0.283-0.23-0.513-0.513-0.513c-0.284,0-0.513,0.229-0.513,0.513v3.396
			C141.229,151.668,141.614,152.291,142.125,152.546z"/>
	</g>
</g>
</svg>
