<?xml version="1.0" encoding="utf-8"?>
<!-- Generator: Adobe Illustrator 16.0.0, SVG Export Plug-In . SVG Version: 6.00 Build 0)  -->
<!DOCTYPE svg PUBLIC "-//W3C//DTD SVG 1.1//EN" "http://www.w3.org/Graphics/SVG/1.1/DTD/svg11.dtd">
<svg version="1.1" id="Capa_1" xmlns="http://www.w3.org/2000/svg" xmlns:xlink="http://www.w3.org/1999/xlink" x="0px" y="0px"
	 width="20px" height="20px" viewBox="202.49 202.49 20 20" enable-background="new 202.49 202.49 20 20" xml:space="preserve">
<g>
	<g>
		<g>
			<path fill="#FFFFFF" d="M213.807,215.669c-0.072-0.079-0.165-0.14-0.259-0.188c-0.205-0.107-0.431-0.173-0.654-0.231v1.731
				c0.363-0.041,0.779-0.172,0.969-0.511l0,0c0.09-0.162,0.108-0.36,0.071-0.541C213.914,215.831,213.873,215.742,213.807,215.669z"
				/>
		</g>
		<g>
			<path fill="#FFFFFF" d="M213.861,216.474c0.001-0.003,0.001-0.003,0.002-0.004l0,0
				C213.862,216.471,213.862,216.472,213.861,216.474z"/>
		</g>
		<g>
			<path fill="#FFFFFF" d="M211.193,212.902c-0.063,0.091-0.101,0.195-0.111,0.305c-0.012,0.109-0.005,0.231,0.036,0.336
				c0.041,0.099,0.124,0.171,0.21,0.23c0.097,0.065,0.203,0.117,0.312,0.16c0.09,0.036,0.192,0.071,0.303,0.105v-1.566
				C211.664,212.533,211.36,212.66,211.193,212.902z"/>
		</g>
		<g>
			<path fill="#FFFFFF" d="M213.869,216.457c-0.001,0.005-0.003,0.008-0.006,0.013l0,0
				C213.866,216.464,213.868,216.46,213.869,216.457z"/>
		</g>
		<g>
			<path fill="#FFFFFF" d="M213.879,216.44C213.88,216.439,213.88,216.438,213.879,216.44L213.879,216.44z"/>
		</g>
		<g>
			<path fill="#FFFFFF" d="M213.504,207.027c1.472-1.236,2.454-4.021,1.85-4.142c-0.804-0.162-2.55,0.548-3.394,0.673
				c-1.197,0.144-2.5-1.298-3.232-0.494c-0.595,0.654,0.427,3.032,2.025,4.067c-4.769,2.343-11.47,14.106,0.221,14.962
				C227.151,223.273,219.051,209.311,213.504,207.027z M214.894,216.305c-0.051,0.458-0.294,0.874-0.656,1.155
				c-0.385,0.298-0.865,0.436-1.343,0.476v0.506c0,0.135-0.06,0.266-0.16,0.356c-0.14,0.123-0.346,0.153-0.515,0.076
				c-0.167-0.077-0.277-0.248-0.277-0.433v-0.555c-0.082-0.015-0.164-0.033-0.244-0.056c-0.447-0.121-0.862-0.361-1.165-0.716
				c-0.15-0.176-0.273-0.376-0.359-0.593c-0.021-0.057-0.041-0.114-0.06-0.172c-0.015-0.054-0.032-0.106-0.037-0.161
				c-0.01-0.092,0.009-0.186,0.051-0.269c0.089-0.169,0.274-0.27,0.464-0.253c0.187,0.016,0.351,0.146,0.41,0.324
				c0.018,0.054,0.031,0.109,0.051,0.165c0.02,0.054,0.044,0.104,0.073,0.156c0.056,0.098,0.127,0.188,0.208,0.269
				c0.169,0.161,0.383,0.266,0.606,0.328v-1.883c-0.437-0.113-0.887-0.259-1.248-0.539c-0.175-0.137-0.324-0.306-0.42-0.506
				c-0.104-0.211-0.146-0.448-0.148-0.681c-0.001-0.239,0.043-0.474,0.143-0.69c0.092-0.203,0.227-0.385,0.39-0.535
				c0.351-0.323,0.816-0.503,1.283-0.569v-0.041v-0.484c0-0.136,0.059-0.268,0.161-0.357c0.14-0.124,0.344-0.154,0.514-0.076
				c0.167,0.077,0.277,0.248,0.277,0.433v0.484v0.039c0.063,0.008,0.125,0.017,0.186,0.029c0.458,0.083,0.907,0.271,1.242,0.603
				c0.16,0.156,0.288,0.343,0.381,0.546c0.024,0.057,0.048,0.115,0.066,0.174c0.018,0.055,0.037,0.112,0.045,0.169
				c0.015,0.092,0,0.188-0.039,0.271c-0.082,0.172-0.262,0.283-0.453,0.274c-0.186-0.009-0.355-0.131-0.423-0.305
				c-0.02-0.053-0.03-0.107-0.05-0.159c-0.021-0.052-0.048-0.103-0.077-0.149c-0.061-0.092-0.137-0.171-0.226-0.235
				c-0.19-0.141-0.421-0.215-0.653-0.256v1.803c0.275,0.065,0.549,0.137,0.813,0.239c0.398,0.157,0.775,0.398,0.991,0.777
				c-0.033-0.06-0.066-0.116,0.001,0.002c0.068,0.117,0.035,0.061,0.002,0.004C214.874,215.595,214.93,215.959,214.894,216.305z"/>
		</g>
		<g>
			<path fill="#FFFFFF" d="M213.856,216.481c-0.004,0.005-0.006,0.01-0.008,0.013C213.851,216.491,213.853,216.488,213.856,216.481z
				"/>
		</g>
	</g>
</g>
</svg>
