<?xml version="1.0" encoding="utf-8"?>
<!-- Generator: Adobe Illustrator 16.0.0, SVG Export Plug-In . SVG Version: 6.00 Build 0)  -->
<!DOCTYPE svg PUBLIC "-//W3C//DTD SVG 1.1//EN" "http://www.w3.org/Graphics/SVG/1.1/DTD/svg11.dtd">
<svg version="1.1" id="Capa_1" xmlns="http://www.w3.org/2000/svg" xmlns:xlink="http://www.w3.org/1999/xlink" x="0px" y="0px"
	 width="20px" height="20px" viewBox="51.35 51.35 20 20" enable-background="new 51.35 51.35 20 20" xml:space="preserve">
<g>
	<circle fill="#FFFFFF" cx="54.603" cy="53.426" r="1.951"/>
	<path fill="#FFFFFF" d="M52.427,62.212h0.193v3.869c0,0.532,0.435,0.968,0.967,0.968h2.031c0.532,0,0.967-0.436,0.967-0.968v-0.226
		c-0.178-0.338-0.291-0.725-0.291-1.128v-5.063c0-0.983,0.597-1.838,1.451-2.208v-0.387c0-0.532-0.435-0.967-0.967-0.967h-4.353
		c-0.532,0-0.967,0.436-0.967,0.967v4.176C51.459,61.777,51.878,62.212,52.427,62.212z"/>
	<circle fill="#FFFFFF" cx="68.112" cy="53.426" r="1.951"/>
	<path fill="#FFFFFF" d="M64.953,57.054v0.387c0.854,0.371,1.45,1.226,1.45,2.208v5.045c0,0.403-0.097,0.79-0.289,1.129v0.227
		c0,0.532,0.435,0.967,0.967,0.967h2.031c0.531,0,0.968-0.435,0.968-0.967v-3.869h0.192c0.532,0,0.968-0.436,0.968-0.968v-4.159
		c0-0.532-0.436-0.967-0.968-0.967H65.92C65.388,56.086,64.953,56.521,64.953,57.054z"/>
	<path fill="#FFFFFF" d="M57.763,59.665L57.763,59.665v1.58v3.483c0,0.531,0.436,0.967,0.967,0.967h0.371v4.563
		c0,0.532,0.436,0.968,0.967,0.968h2.596c0.531,0,0.967-0.436,0.967-0.968v-4.578h0.37c0.532,0,0.968-0.436,0.968-0.968v-3.466
		v-1.58l0,0c0-0.532-0.436-0.967-0.968-0.967H58.73C58.182,58.698,57.763,59.133,57.763,59.665z"/>
	<circle fill="#FFFFFF" cx="61.357" cy="55.651" r="2.241"/>
</g>
</svg>
