<?xml version="1.0" encoding="utf-8"?>
<!-- Generator: Adobe Illustrator 16.0.0, SVG Export Plug-In . SVG Version: 6.00 Build 0)  -->
<!DOCTYPE svg PUBLIC "-//W3C//DTD SVG 1.1//EN" "http://www.w3.org/Graphics/SVG/1.1/DTD/svg11.dtd">
<svg version="1.1" id="Capa_1" xmlns="http://www.w3.org/2000/svg" xmlns:xlink="http://www.w3.org/1999/xlink" x="0px" y="0px"
	 width="20px" height="20px" viewBox="-5 -5 20 20" enable-background="new -5 -5 20 20" xml:space="preserve">
<path fill="#FFFFFF" d="M10.575,15.001c-0.105,0-0.206-0.066-0.243-0.17L7.969,8.309H5.258v0.914C5.258,9.363,5.143,9.48,5,9.48
	S4.742,9.363,4.742,9.223V8.309H2.031l-2.362,6.522c-0.049,0.135-0.196,0.203-0.33,0.154c-0.134-0.047-0.203-0.195-0.154-0.33
	l2.298-6.347H0.647c-0.142,0-0.257-0.117-0.257-0.258c0-0.143,0.115-0.258,0.257-0.258h1.022L3.73,2.1
	C3.412,1.778,3.215,1.334,3.215,0.845c0-0.896,0.665-1.642,1.527-1.767v-0.551H4.446c-0.143,0-0.258-0.115-0.258-0.258v-3.013
	c0-0.143,0.115-0.258,0.258-0.258h1.107c0.143,0,0.258,0.115,0.258,0.258v3.013c0,0.143-0.115,0.258-0.258,0.258H5.258v0.551
	c0.863,0.125,1.527,0.87,1.527,1.767c0,0.489-0.197,0.933-0.516,1.255l2.063,5.693h1.02c0.143,0,0.258,0.115,0.258,0.258
	c0,0.141-0.115,0.258-0.258,0.258H8.518l2.3,6.347c0.047,0.135-0.021,0.281-0.156,0.33C10.634,14.997,10.603,15.001,10.575,15.001z
	 M5.258,7.793h2.525L5.838,2.422C5.588,2.555,5.303,2.631,5,2.631s-0.588-0.076-0.838-0.21L2.217,7.793h2.525V6.879
	c0-0.143,0.115-0.258,0.258-0.258s0.258,0.115,0.258,0.258V7.793L5.258,7.793z M5-0.425c-0.7,0-1.271,0.57-1.271,1.271
	C3.729,1.546,4.3,2.116,5,2.116s1.27-0.569,1.27-1.271C6.27,0.145,5.7-0.425,5-0.425z M5-1.988h0.296v-2.499H4.704v2.499H5z"/>
</svg>
