<?xml version="1.0" encoding="utf-8"?>
<!-- Generator: Adobe Illustrator 16.0.0, SVG Export Plug-In . SVG Version: 6.00 Build 0)  -->
<!DOCTYPE svg PUBLIC "-//W3C//DTD SVG 1.1//EN" "http://www.w3.org/Graphics/SVG/1.1/DTD/svg11.dtd">
<svg version="1.1" id="Capa_1" xmlns="http://www.w3.org/2000/svg" xmlns:xlink="http://www.w3.org/1999/xlink" x="0px" y="0px"
	 width="20px" height="20px" viewBox="234.853 234.853 20 20" enable-background="new 234.853 234.853 20 20" xml:space="preserve">
<g>
	<path fill="#FFFFFF" d="M252.985,243.787l-1.766-2.49v-1.145v-1.873c0.003-0.03,0.006-0.06,0.006-0.09v-2.647
		c0-0.369-0.298-0.667-0.666-0.667c-0.369,0-0.668,0.298-0.668,0.667v0.241h-0.004v0.431h-10.07v-0.431h-0.001v-0.241
		c0-0.369-0.298-0.667-0.667-0.667c-0.368,0-0.667,0.298-0.667,0.667v2.647c0,0.008,0.001,0.017,0.001,0.025v1.938v1.149
		l-1.763,2.485c-0.059,0.084-0.091,0.184-0.091,0.286v3.55c0,0.272,0.221,0.494,0.494,0.494h1.186
		c0.023,0.017,0.046,0.031,0.071,0.045l5.019,2.688l-5.019,2.688c-0.334,0.181-0.46,0.596-0.281,0.93
		c0.124,0.23,0.361,0.362,0.605,0.362c0.11,0,0.221-0.026,0.323-0.082l5.825-3.119l5.824,3.119c0.104,0.056,0.214,0.082,0.323,0.082
		c0.245,0,0.482-0.132,0.605-0.362c0.18-0.334,0.053-0.749-0.28-0.93l-5.02-2.688l5.02-2.688c0.024-0.014,0.048-0.028,0.07-0.045
		h1.187c0.272,0,0.493-0.222,0.493-0.494v-3.55C253.075,243.971,253.045,243.871,252.985,243.787z M238.483,244.074l-0.825,3.054
		h-0.041v-2.897l0.866-1.221V244.074z M244.853,250.071l-4.432-2.373h8.865L244.853,250.071z M249.927,241.762h-10.147v-2.003
		h10.147V241.762z M252.088,247.128h-0.044l-0.824-3.054v-1.068l0.868,1.226V247.128z"/>
</g>
</svg>
