<?xml version="1.0" encoding="utf-8"?>
<!-- Generator: Adobe Illustrator 16.0.0, SVG Export Plug-In . SVG Version: 6.00 Build 0)  -->
<!DOCTYPE svg PUBLIC "-//W3C//DTD SVG 1.1//EN" "http://www.w3.org/Graphics/SVG/1.1/DTD/svg11.dtd">
<svg version="1.1" id="Capa_1" xmlns="http://www.w3.org/2000/svg" xmlns:xlink="http://www.w3.org/1999/xlink" x="0px" y="0px"
	 width="20px" height="20px" viewBox="40 40 20 20" enable-background="new 40 40 20 20" xml:space="preserve">
<g>
	<path fill="#FFFFFF" d="M59.512,44.013l-3.525-3.524c-0.162-0.163-0.429-0.163-0.592,0c-0.162,0.162-0.164,0.423-0.006,0.586
		l-0.866,0.866c-0.163,0.164-0.163,0.429,0,0.593l0.595,0.594l-1.855,1.855l-0.594-0.594c-0.164-0.164-0.429-0.164-0.593,0
		c-0.163,0.164-0.163,0.429,0,0.593l2.943,2.942c0.081,0.082,0.188,0.123,0.295,0.123c0.108,0,0.216-0.041,0.297-0.123
		c0.164-0.163,0.164-0.428,0-0.592l-0.594-0.594l1.854-1.855l0.594,0.594c0.082,0.082,0.189,0.123,0.298,0.123
		c0.105,0,0.213-0.041,0.295-0.123l0.866-0.867c0.082,0.078,0.186,0.118,0.291,0.118c0.106,0,0.214-0.041,0.297-0.123
		C59.674,44.442,59.674,44.177,59.512,44.013z M54.425,46.146l-0.57-0.57l1.854-1.854l0.571,0.569L54.425,46.146z M57.763,44.589
		l-2.352-2.35l0.57-0.57l2.351,2.351L57.763,44.589z"/>
	<path fill="#FFFFFF" d="M49.181,47.876l-0.93-0.93c-0.164-0.164-0.429-0.164-0.593,0l-2.81,2.81
		c-0.079,0.079-0.123,0.186-0.123,0.297c0,0.11,0.044,0.217,0.123,0.295l0.634,0.634L43.264,53.2l-0.285-0.284
		c-0.079-0.078-0.185-0.123-0.297-0.123c-0.111,0-0.217,0.045-0.295,0.123l-1.607,1.606c-0.164,0.163-0.164,0.429,0,0.593
		l0.285,0.285l-0.575,0.576c-0.164,0.162-0.164,0.428,0,0.591l2.943,2.942c0.078,0.08,0.185,0.123,0.296,0.123
		c0.111,0,0.218-0.043,0.296-0.123l0.576-0.574l0.285,0.284c0.082,0.081,0.189,0.124,0.296,0.124s0.214-0.043,0.296-0.124
		l1.606-1.606c0.164-0.163,0.164-0.428,0-0.593l-0.285-0.285l5.324-5.323c0.079-0.078,0.123-0.186,0.123-0.296
		c0-0.112-0.044-0.218-0.123-0.297L49.181,47.876z M45.737,50.054l2.218-2.218l0.337,0.337l-2.218,2.218L45.737,50.054z
		 M44.827,55.948l-1.014,1.015l-0.776-0.776l1.015-1.014L44.827,55.948z M42.683,53.804l0.777,0.775l-1.015,1.016l-0.491-0.49
		c0-0.001,0-0.001,0-0.001l0,0l-0.286-0.285L42.683,53.804z M43.729,58.621l-2.351-2.35l0.28-0.28l2.351,2.351L43.729,58.621z
		 M45.182,58.332l-0.776-0.776l1.015-1.015l0.776,0.775L45.182,58.332z M46.207,56.144l-0.49-0.491c0,0,0,0,0,0l0,0l-1.369-1.368
		l0,0l0,0l-0.491-0.49l2.513-2.515l0,0l0,0l2.514-2.514l2.351,2.351L46.207,56.144z"/>
	<path fill="#FFFFFF" d="M50.053,47.005c-0.164-0.164-0.429-0.164-0.593,0s-0.164,0.429,0,0.593l2.942,2.942
		c0.082,0.082,0.19,0.123,0.296,0.123c0.107,0,0.215-0.041,0.297-0.123c0.163-0.164,0.163-0.429,0-0.592L50.053,47.005z"/>
	<path fill="#FFFFFF" d="M50.924,46.133c-0.163-0.164-0.428-0.164-0.592,0s-0.164,0.429,0,0.592l2.942,2.943
		c0.081,0.082,0.189,0.123,0.297,0.123c0.105,0,0.214-0.042,0.295-0.123c0.164-0.164,0.164-0.429,0-0.592L50.924,46.133z"/>
	<path fill="#FFFFFF" d="M51.795,45.261c-0.162-0.163-0.428-0.163-0.592,0c-0.163,0.164-0.163,0.429,0,0.593l2.943,2.942
		c0.081,0.082,0.188,0.123,0.296,0.123s0.215-0.041,0.296-0.123c0.165-0.163,0.165-0.428,0-0.592L51.795,45.261z"/>
</g>
</svg>
