<?xml version="1.0" encoding="utf-8"?>
<!-- Generator: Adobe Illustrator 16.0.0, SVG Export Plug-In . SVG Version: 6.00 Build 0)  -->
<!DOCTYPE svg PUBLIC "-//W3C//DTD SVG 1.1//EN" "http://www.w3.org/Graphics/SVG/1.1/DTD/svg11.dtd">
<svg version="1.1" id="Capa_1" xmlns="http://www.w3.org/2000/svg" xmlns:xlink="http://www.w3.org/1999/xlink" x="0px" y="0px"
	 width="20px" height="20px" viewBox="15 15 20 20" enable-background="new 15 15 20 20" xml:space="preserve">
<g>
	<g id="visibility">
		<path fill="#FFFFFF" d="M25,18.365c-4.423,0-8.229,2.742-9.732,6.635c1.504,3.893,5.31,6.635,9.732,6.635
			c4.424,0,8.229-2.742,9.732-6.635C33.229,21.107,29.424,18.365,25,18.365z M25,29.424c-2.479,0-4.423-1.945-4.423-4.423
			s1.946-4.424,4.423-4.424s4.424,1.946,4.424,4.424S27.477,29.424,25,29.424z M25,22.346c-1.504,0-2.654,1.15-2.654,2.654
			s1.15,2.654,2.654,2.654s2.654-1.149,2.654-2.654C27.654,23.497,26.504,22.346,25,22.346z"/>
	</g>
</g>
</svg>
