<?xml version="1.0" encoding="utf-8"?>
<!-- Generator: Adobe Illustrator 16.0.0, SVG Export Plug-In . SVG Version: 6.00 Build 0)  -->
<!DOCTYPE svg PUBLIC "-//W3C//DTD SVG 1.1//EN" "http://www.w3.org/Graphics/SVG/1.1/DTD/svg11.dtd">
<svg version="1.1" id="Capa_1" xmlns="http://www.w3.org/2000/svg" xmlns:xlink="http://www.w3.org/1999/xlink" x="0px" y="0px"
	 width="20px" height="20px" viewBox="0 0 20 20" enable-background="new 0 0 20 20" xml:space="preserve">
<g>
	<g id="_x33__13_">
		<g>
			<path fill="#FFFFFF" d="M18.626,10.143l-3.696,2.465c0-0.748-0.341-1.41-0.867-1.862c1.254-0.754,2.1-2.113,2.1-3.683
				c0-2.383-1.931-4.313-4.313-4.313c-2.382,0-4.313,1.931-4.313,4.313c0,1.207,0.499,2.297,1.3,3.08h-2.26
				c0.591-0.654,0.96-1.514,0.96-2.465c0-2.041-1.655-3.695-3.697-3.695c-2.041,0-3.695,1.654-3.695,3.695
				c0,1.114,0.504,2.102,1.282,2.779c-0.761,0.419-1.282,1.221-1.282,2.15v4.928C0.144,18.896,1.247,20,2.608,20h9.856
				c1.36,0,2.464-1.104,2.464-2.465L18.625,20c0.681,0,1.231-0.552,1.231-1.232v-7.394C19.858,10.693,19.307,10.143,18.626,10.143z
				 M3.839,10.143c-1.359,0-2.464-1.104-2.464-2.465s1.104-2.465,2.464-2.465c1.361,0,2.465,1.104,2.465,2.465
				S5.2,10.143,3.839,10.143z M11.849,10.148c-1.705,0-3.088-1.383-3.088-3.088s1.383-3.088,3.088-3.088s3.087,1.383,3.087,3.088
				C14.936,8.768,13.554,10.148,11.849,10.148z"/>
		</g>
	</g>
</g>
</svg>
