<?xml version="1.0" encoding="utf-8"?>
<!-- Generator: Adobe Illustrator 16.0.0, SVG Export Plug-In . SVG Version: 6.00 Build 0)  -->
<!DOCTYPE svg PUBLIC "-//W3C//DTD SVG 1.1//EN" "http://www.w3.org/Graphics/SVG/1.1/DTD/svg11.dtd">
<svg version="1.1" id="Capa_1" xmlns="http://www.w3.org/2000/svg" xmlns:xlink="http://www.w3.org/1999/xlink" x="0px" y="0px"
	 width="20px" height="20px" viewBox="0 0 20 20" enable-background="new 0 0 20 20" xml:space="preserve">
<g>
	<g>
		<path fill="#FFFFFF" d="M6.853,13.706c0.42,0,0.834-0.041,1.238-0.118C7.215,12.87,6.496,11.95,6.008,10.88
			c-0.148-0.034-0.297-0.077-0.443-0.129C3.57,10.042,2.525,7.842,3.236,5.847c0.543-1.527,1.998-2.553,3.616-2.553
			c0.437,0,0.87,0.075,1.287,0.223c1.995,0.711,3.04,2.91,2.33,4.905c-0.054,0.149-0.117,0.296-0.188,0.438
			c0.002,0.004,0.004,0.008,0.006,0.012c0.394,0.906,1.223,1.527,2.182,1.673c0.229-0.376,0.422-0.778,0.572-1.205
			c1.218-3.414-0.572-7.178-3.984-8.394C8.346,0.694,7.604,0.565,6.854,0.565c-2.771,0-5.26,1.754-6.188,4.365
			c-1.08,3.033,0.211,6.346,2.908,7.896L2.767,15.09l-0.272-0.578c-0.28-0.589-0.985-0.841-1.576-0.562
			c-0.588,0.279-0.84,0.984-0.561,1.574l1.537,3.233c0.202,0.427,0.626,0.677,1.068,0.677c0.17,0,0.342-0.037,0.506-0.115
			l3.072-1.459c0.591-0.279,0.842-0.984,0.562-1.573c-0.278-0.591-0.983-0.843-1.573-0.562l-0.576,0.273l0.848-2.381
			C6.146,13.677,6.498,13.706,6.853,13.706z"/>
		<path fill="#FFFFFF" d="M19.902,14.409c-0.259-0.6-0.953-0.873-1.554-0.615l-1.3,0.564L16.546,13.2
			c1.104-0.734,1.96-1.782,2.459-3.041c0.646-1.631,0.618-3.418-0.082-5.027c-1.042-2.406-3.409-3.96-6.031-3.96
			c-0.503,0-0.887,0.039-1.371,0.151c0.952,0.605,1.642,1.445,2.119,2.66c1.258,0.221,2.259,1.037,2.776,2.233
			c0.408,0.938,0.424,1.983,0.049,2.938c-0.381,0.955-1.104,1.705-2.046,2.111c-0.486,0.211-0.999,0.315-1.523,0.315
			c-0.227,0-0.452-0.021-0.67-0.062c-1.257-0.223-2.335-1.058-2.854-2.254C8.979,8.36,8.949,7.36,9.283,6.437
			C9.298,6.399,9.31,6.364,9.326,6.328C9.4,6.14,9.492,5.961,9.594,5.79C9.14,5.019,8.438,4.437,7.587,4.134
			C7.535,4.114,7.484,4.11,7.435,4.093C7.18,4.478,6.959,4.886,6.789,5.321C6.779,5.344,6.771,5.368,6.763,5.39
			c-0.618,1.613-0.582,3.371,0.106,4.959c0.779,1.805,2.308,3.131,4.127,3.682c0.606,0.184,1.248,0.279,1.901,0.279
			c0.501,0,0.996-0.063,1.479-0.176l0.504,1.159l-1.301,0.563c-0.602,0.26-0.875,0.955-0.614,1.553
			c0.19,0.447,0.627,0.714,1.086,0.714c0.153,0,0.313-0.031,0.467-0.099l1.302-0.563l0.479,1.108
			c0.192,0.444,0.627,0.711,1.086,0.711c0.155,0,0.315-0.03,0.467-0.099c0.601-0.26,0.876-0.952,0.616-1.553l-0.479-1.108
			l1.301-0.563C19.887,15.703,20.162,15.009,19.902,14.409z"/>
	</g>
</g>
</svg>
