<?xml version="1.0" encoding="utf-8"?>
<!-- Generator: Adobe Illustrator 16.0.0, SVG Export Plug-In . SVG Version: 6.00 Build 0)  -->
<!DOCTYPE svg PUBLIC "-//W3C//DTD SVG 1.1//EN" "http://www.w3.org/Graphics/SVG/1.1/DTD/svg11.dtd">
<svg version="1.1" id="Capa_1" xmlns="http://www.w3.org/2000/svg" xmlns:xlink="http://www.w3.org/1999/xlink" x="0px" y="0px"
	 width="20px" height="20px" viewBox="0 0 20 20" enable-background="new 0 0 20 20" xml:space="preserve">
<g>
	<g>
		<path fill="#FFFFFF" d="M2.724,18.543c0,0-2.459-7.49,1.853-9.179c0,0,4.112,3.128,8.698,0.636c0,0,4.576-2.976,4.778,7.608
			c0,0,1.829-2.762,1.468-6.443c0,0,0.418,0.914,0.535,1.451c0,0,0.158-8.724-7.082-9.788c0,0,1.94-0.76,2.985,0.004
			c0,0-4.171-2.388-7.502-0.52c0,0-0.336-0.596,0.582-0.854c0,0-4.833-0.028-5.043,3.164c0,0-4.821,0.514-3.946,6.571l0.532-0.609
			C0.581,10.584,0.646,15.875,2.724,18.543z"/>
	</g>
</g>
</svg>
