<?xml version="1.0" encoding="utf-8"?>
<!-- Generator: Adobe Illustrator 16.0.0, SVG Export Plug-In . SVG Version: 6.00 Build 0)  -->
<!DOCTYPE svg PUBLIC "-//W3C//DTD SVG 1.1//EN" "http://www.w3.org/Graphics/SVG/1.1/DTD/svg11.dtd">
<svg version="1.1" id="Capa_1" xmlns="http://www.w3.org/2000/svg" xmlns:xlink="http://www.w3.org/1999/xlink" x="0px" y="0px"
	 width="20px" height="20px" viewBox="14.958 14.959 20 20" enable-background="new 14.958 14.959 20 20" xml:space="preserve">
<g>
	<path fill="#FFFFFF" d="M31.823,18.094c1.833,1.834,2.843,4.272,2.843,6.865c0,2.594-1.01,5.031-2.843,6.865
		c-1.834,1.833-4.272,2.843-6.865,2.843s-5.031-1.01-6.865-2.843c-1.833-1.834-2.843-4.271-2.843-6.865
		c0-2.593,1.01-5.031,2.843-6.865c1.834-1.833,4.271-2.843,6.865-2.843C27.551,15.25,29.989,16.26,31.823,18.094z M30.965,30.966
		c1.195-1.194,1.991-2.687,2.319-4.306c-0.255,0.376-0.5,0.516-0.651-0.326c-0.154-1.373-1.417-0.496-2.21-0.982
		c-0.834,0.562-2.71-1.095-2.39,0.773c0.49,0.841,2.652-1.128,1.576,0.654c-0.688,1.244-2.518,3.998-2.278,5.429
		c0.03,2.08-2.126,0.435-2.869-0.257c-0.5-1.383-0.17-3.801-1.478-4.477c-1.418-0.063-2.635-0.189-3.186-1.775
		c-0.331-1.135,0.352-2.824,1.568-3.085c1.779-1.118,2.415,1.309,4.084,1.354c0.518-0.542,1.93-0.714,2.046-1.321
		c-1.095-0.193,1.392-0.92-0.104-1.334c-0.824,0.096-1.355,0.854-0.918,1.496c-1.597,0.373-1.647-2.312-3.184-1.465
		c-0.039,1.34-2.507,0.434-0.854,0.163c0.567-0.248-0.927-0.968-0.119-0.836c0.396-0.021,1.73-0.489,1.369-0.804
		c0.744-0.463,1.369,1.104,2.097-0.036c0.526-0.878-0.222-1.039-0.88-0.595c-0.371-0.416,0.656-1.313,1.563-1.702
		c0.303-0.13,0.59-0.2,0.811-0.181c0.457,0.527,1.301,0.619,1.345-0.063c-1.13-0.541-2.375-0.827-3.665-0.827
		c-1.852,0-3.611,0.588-5.068,1.677c0.391,0.18,0.613,0.402,0.235,0.688c-0.292,0.873-1.481,2.045-2.526,1.879
		c-0.541,0.935-0.898,1.964-1.052,3.044c0.875,0.29,1.076,0.862,0.888,1.053c-0.445,0.391-0.72,0.939-0.859,1.543
		c0.283,1.741,1.103,3.346,2.375,4.617c1.604,1.604,3.736,2.488,6.007,2.488S29.359,32.57,30.965,30.966z"/>
</g>
</svg>
