<?xml version="1.0" encoding="utf-8"?>
<!-- Generator: Adobe Illustrator 16.0.0, SVG Export Plug-In . SVG Version: 6.00 Build 0)  -->
<!DOCTYPE svg PUBLIC "-//W3C//DTD SVG 1.1//EN" "http://www.w3.org/Graphics/SVG/1.1/DTD/svg11.dtd">
<svg version="1.1" id="Capa_1" xmlns="http://www.w3.org/2000/svg" xmlns:xlink="http://www.w3.org/1999/xlink" x="0px" y="0px"
	 width="20px" height="20px" viewBox="-5 -5 20 20" enable-background="new -5 -5 20 20" xml:space="preserve">
<g>
	<polygon fill="#FFFFFF" points="-1.05,-5 -2.215,-2.638 -4.822,-2.259 -2.937,-0.42 -3.381,2.176 -1.05,0.95 1.282,2.176 
		0.837,-0.42 2.723,-2.259 0.116,-2.638 	"/>
	<polygon fill="#FFFFFF" points="10.406,8.688 8.879,5.59 7.348,8.688 3.931,9.184 6.404,11.596 5.82,15 8.879,13.393 11.936,15 
		11.352,11.596 13.824,9.184 	"/>
	<polygon fill="#FFFFFF" points="12.721,-0.237 13.387,-1.859 14.822,-2.865 13.201,-3.531 12.195,-4.967 11.527,-3.345 
		10.094,-2.339 11.715,-1.673 	"/>
	<polygon fill="#FFFFFF" points="-0.78,4.309 -1.147,5.613 -2.161,6.512 -0.857,6.879 0.042,7.895 0.41,6.59 1.423,5.69 
		0.119,5.322 	"/>
	<polygon fill="#FFFFFF" points="-1.64,9.004 -2.251,10.859 -4.104,11.469 -2.251,12.08 -1.64,13.934 -1.028,12.08 0.825,11.469 
		-1.028,10.859 	"/>
	<polygon fill="#FFFFFF" points="5.527,4.067 7.184,3.037 9,3.757 7.969,2.1 8.688,0.285 7.031,1.315 5.217,0.596 6.246,2.253 	"/>
</g>
</svg>
