<?xml version="1.0" encoding="utf-8"?>
<!-- Generator: Adobe Illustrator 16.0.0, SVG Export Plug-In . SVG Version: 6.00 Build 0)  -->
<!DOCTYPE svg PUBLIC "-//W3C//DTD SVG 1.1//EN" "http://www.w3.org/Graphics/SVG/1.1/DTD/svg11.dtd">
<svg version="1.1" id="Capa_1" xmlns="http://www.w3.org/2000/svg" xmlns:xlink="http://www.w3.org/1999/xlink" x="0px" y="0px"
	 width="20px" height="20px" viewBox="227.865 227.865 20 20" enable-background="new 227.865 227.865 20 20" xml:space="preserve">
<g>
	<g>
		<path fill="#FFFFFF" d="M241.881,230.019c-2.425,0-4.517,1.28-5.444,3.111c-0.181-0.026-0.358-0.031-0.468-0.031
			c-0.4,0-1.444,0.07-2.488,0.72c-0.573,0.357-0.841,0.864-0.868,1.645c0,0.002,0,0.005,0,0.007h0.002l-0.001,1.31h-0.001
			c-0.009,0.002-0.018,0.006-0.027,0.01c-0.135,0.061-0.207,0.034-0.224,0.319c-0.02,0.325,0.037,1.184,0.388,1.397
			c0.053,0.054,0.087,0.2,0.108,0.365c0.039,0.307,0.083,0.653,0.255,0.881c0.394,0.518,0.291,1.318,0.282,1.38
			c-0.001,0.001-0.003,0.003-0.006,0.004c-0.243,0.108-0.306,0.32-0.353,0.476l-0.024,0.077c-0.063,0.202-0.122,0.393-0.204,0.574
			c-0.011,0.017-0.058,0.054-0.12,0.076l-0.179,0.069c-1.133,0.435-2.303,0.884-3.391,1.484c-1.028,0.568-1.245,3.646-1.253,3.743
			c-0.005,0.059,0.015,0.117,0.055,0.16c0.04,0.044,0.096,0.068,0.155,0.068h7.5h7.5c0.061,0,0.116-0.024,0.155-0.068
			c0.04-0.043,0.061-0.102,0.055-0.16c-0.008-0.098-0.225-3.175-1.252-3.743c-1.088-0.601-2.259-1.05-3.392-1.484l-0.18-0.069
			c-0.061-0.022-0.108-0.061-0.119-0.076c-0.082-0.182-0.141-0.372-0.204-0.574l-0.024-0.077c-0.046-0.155-0.11-0.367-0.352-0.476
			c-0.003-0.001-0.005-0.003-0.006-0.004c-0.009-0.062-0.112-0.862,0.281-1.38c0.083-0.108,0.135-0.244,0.173-0.389
			c0.806,0.556,1.783,0.933,2.852,1.063v1.921c0,0.202,0.123,0.385,0.312,0.46c0.061,0.023,0.122,0.035,0.184,0.035
			c0.134,0,0.265-0.054,0.36-0.155l2.605-2.753c0.957-0.417,1.768-1.049,2.352-1.835c0.63-0.849,0.961-1.835,0.961-2.852
			C247.836,232.364,245.165,230.019,241.881,230.019z M244.046,239.061c-0.064,0.026-0.123,0.066-0.17,0.116l-1.823,1.926v-1.132
			c0-0.263-0.206-0.48-0.47-0.493c-1.175-0.062-2.234-0.468-3.047-1.102c0.231-0.322,0.27-0.989,0.253-1.267
			c-0.017-0.285-0.088-0.258-0.225-0.319c-0.008-0.004-0.018-0.007-0.025-0.01h-0.002l0.002-1.31
			c-0.002-0.667-0.163-1.114-0.495-1.37c-0.147-0.113-0.315-0.219-0.479-0.321c-0.089-0.056-0.18-0.113-0.262-0.169
			c0.751-1.526,2.521-2.601,4.578-2.601c2.737,0,4.964,1.901,4.964,4.238C246.845,236.858,245.747,238.355,244.046,239.061z"/>
		<circle fill="#FFFFFF" cx="239.873" cy="235.181" r="0.625"/>
		<circle fill="#FFFFFF" cx="241.881" cy="235.181" r="0.625"/>
		<circle fill="#FFFFFF" cx="243.89" cy="235.181" r="0.625"/>
	</g>
</g>
</svg>
