<?xml version="1.0" encoding="utf-8"?>
<!-- Generator: Adobe Illustrator 16.0.0, SVG Export Plug-In . SVG Version: 6.00 Build 0)  -->
<!DOCTYPE svg PUBLIC "-//W3C//DTD SVG 1.1//EN" "http://www.w3.org/Graphics/SVG/1.1/DTD/svg11.dtd">
<svg version="1.1" id="Capa_1" xmlns="http://www.w3.org/2000/svg" xmlns:xlink="http://www.w3.org/1999/xlink" x="0px" y="0px"
	 width="20px" height="20px" viewBox="23.949 23.949 20 20" enable-background="new 23.949 23.949 20 20" xml:space="preserve">
<g>
	<path fill="#FFFFFF" d="M33.576,36.15l1.181,5.846l-0.131,0.143c-0.138,0.151-0.333,0.237-0.539,0.237c0,0,0,0,0,0
		c-0.205,0-0.4-0.087-0.539-0.238L28.09,36.15h0.647c0.506,0,0.945-0.361,1.042-0.859l0.593-3.04l0.673,3.065
		c0.105,0.482,0.542,0.834,1.038,0.834H33.576z M25.47,33.081c0.196,0.322,0.424,0.636,0.686,0.944h1.706l1.407-7.212
		c0.097-0.491,0.53-0.853,1.031-0.858c0.518,0.004,0.944,0.348,1.05,0.836l1.588,7.234h1.507c0.503,0,0.941,0.358,1.042,0.851
		l0.412,2.043l0.248-1.874c0.071-0.525,0.523-0.922,1.054-0.922h4.757l0.044-0.049c0.008-0.009,0.017-0.018,0.023-0.027
		c0.251-0.304,0.47-0.609,0.659-0.917l0.496-0.985c0.265-0.669,0.396-1.357,0.396-2.073c0-2.971-2.238-5.427-5.115-5.776
		l-0.385-0.034c-0.105-0.006-0.212-0.009-0.319-0.009c-1.355,0-2.634,0.457-3.667,1.301c-1.033-0.844-2.312-1.301-3.668-1.301
		c-0.1,0-0.199,0.002-0.298,0.007l-0.384,0.034c-2.888,0.339-5.137,2.8-5.137,5.778c0,0.699,0.127,1.376,0.381,2.03L25.47,33.081z
		 M37.812,38.656l2.202-2.407h-1.883L37.812,38.656z M43.12,34.869h-5.896c-0.151,0-0.28,0.113-0.301,0.264l-0.847,6.371
		l-1.312-6.489c-0.028-0.143-0.152-0.244-0.297-0.244h-2.118l-1.719-7.832c-0.031-0.14-0.151-0.237-0.3-0.238
		c-0.144,0.001-0.268,0.104-0.294,0.246l-1.527,7.826h-3.883c-0.168,0-0.303,0.136-0.303,0.303s0.135,0.304,0.303,0.304h4.134
		c0.146,0,0.27-0.103,0.298-0.245l1.294-6.634l1.458,6.641c0.03,0.14,0.154,0.238,0.296,0.238h2.113l1.622,8.024
		c0.028,0.142,0.152,0.243,0.298,0.243c0.003,0,0.006,0,0.009,0c0.149-0.006,0.271-0.115,0.292-0.263l1.051-7.906h5.63
		c0.167,0,0.304-0.136,0.304-0.304C43.425,35.006,43.288,34.869,43.12,34.869z"/>
</g>
</svg>
