<?xml version="1.0" encoding="utf-8"?>
<!-- Generator: Adobe Illustrator 16.0.0, SVG Export Plug-In . SVG Version: 6.00 Build 0)  -->
<!DOCTYPE svg PUBLIC "-//W3C//DTD SVG 1.1//EN" "http://www.w3.org/Graphics/SVG/1.1/DTD/svg11.dtd">
<svg version="1.1" id="Capa_1" xmlns="http://www.w3.org/2000/svg" xmlns:xlink="http://www.w3.org/1999/xlink" x="0px" y="0px"
	 width="20px" height="20px" viewBox="0 0 20 20" enable-background="new 0 0 20 20" xml:space="preserve">
<g>
	<path fill="#FFFFFF" d="M15.008,5.908c0.024-0.201,0.041-0.403,0.041-0.61c0-2.784-2.265-5.048-5.048-5.048
		c-2.784,0-5.048,2.264-5.048,5.048c0,0.207,0.016,0.411,0.041,0.611c-2.315,1.594-3.834,4.26-3.834,7.285
		c0,2.072,0.717,3.973,1.911,5.477c0.543,0.684,1.367,1.08,2.238,1.08h9.383c0.871,0,1.697-0.396,2.238-1.08
		c1.193-1.504,1.91-3.404,1.91-5.477C18.842,10.168,17.321,7.502,15.008,5.908z M10.001,2.185c1.583,0,2.88,1.193,3.073,2.727
		c-0.959-0.355-1.99-0.563-3.073-0.563c-1.082,0-2.115,0.205-3.073,0.563C7.12,3.377,8.417,2.185,10.001,2.185z M9.405,14.84
		c-0.103,0.191-0.299,0.313-0.516,0.313c-0.209,0-0.402-0.109-0.509-0.289L7.64,13.598l-0.302,0.371v0.596
		c0,0.324-0.264,0.588-0.588,0.588c-0.325,0-0.588-0.264-0.588-0.588v-4.317c0-0.324,0.263-0.587,0.588-0.587
		s0.588,0.263,0.588,0.587v2.715l0.878-1.332c0.108-0.162,0.292-0.262,0.487-0.262c0.194,0,0.373,0.113,0.452,0.293
		c0.08,0.178,0.05,0.387-0.08,0.531L8.451,12.9l0.918,1.338C9.493,14.416,9.507,14.648,9.405,14.84z M13.832,12.49v2.113
		c0,0.727-0.146,1.32-0.572,1.701c-0.418,0.355-0.983,0.465-1.54,0.465c-0.312,0-0.635-0.039-0.918-0.117
		c-0.253-0.07-0.404-0.332-0.338-0.586c0.029-0.113,0.105-0.211,0.207-0.27c0.104-0.057,0.225-0.068,0.337-0.033
		c0.202,0.063,0.438,0.105,0.681,0.105c0.559,0,0.982-0.303,0.982-0.998v-0.248h-0.016c-0.225,0.316-0.588,0.496-1.021,0.496
		c-0.938,0-1.602-0.76-1.602-1.852c0-1.215,0.789-1.986,1.718-1.986c0.519,0,0.844,0.223,1.036,0.531h0.017
		c0.021-0.252,0.234-0.447,0.488-0.447h0.058c0.133,0,0.26,0.055,0.354,0.148c0.092,0.096,0.143,0.225,0.138,0.355
		C13.835,12.041,13.832,12.242,13.832,12.49z"/>
	<path fill="#FFFFFF" d="M11.999,12.172c-0.426,0-0.773,0.389-0.773,1.078c0,0.564,0.278,1.004,0.773,1.004
		c0.301,0,0.541-0.199,0.618-0.479c0.03-0.084,0.04-0.207,0.04-0.311v-0.557c0-0.078-0.01-0.154-0.024-0.217
		C12.548,12.381,12.324,12.172,11.999,12.172z"/>
</g>
</svg>
