<?xml version="1.0" encoding="utf-8"?>
<!-- Generator: Adobe Illustrator 16.0.0, SVG Export Plug-In . SVG Version: 6.00 Build 0)  -->
<!DOCTYPE svg PUBLIC "-//W3C//DTD SVG 1.1//EN" "http://www.w3.org/Graphics/SVG/1.1/DTD/svg11.dtd">
<svg version="1.1" id="Capa_1" xmlns="http://www.w3.org/2000/svg" xmlns:xlink="http://www.w3.org/1999/xlink" x="0px" y="0px"
	 width="20px" height="20px" viewBox="0 0 20 20" enable-background="new 0 0 20 20" xml:space="preserve">
<g>
	<g>
		<path fill="#FFFFFF" d="M10,5.326c2.555,0,4.625,2.07,4.625,4.624c0,2.554-2.07,4.625-4.625,4.625
			c-2.554,0-4.624-2.07-4.624-4.625C5.375,7.396,7.446,5.326,10,5.326z"/>
		<path fill="#FFFFFF" d="M10,0.256c-1.214,0-2.371,0.234-3.444,0.641C6.79,1.135,6.983,1.41,7.132,1.715
			C8.031,1.403,8.995,1.224,10,1.224c4.839,0,8.776,3.938,8.776,8.776c0,4.837-3.937,8.775-8.776,8.775
			c-4.839,0-8.775-3.937-8.775-8.775c0-1.629,0.455-3.151,1.232-4.46C2.189,5.336,1.955,5.091,1.768,4.813
			C0.815,6.316,0.256,8.092,0.256,10c0,5.373,4.371,9.744,9.743,9.744c5.374,0,9.745-4.371,9.745-9.744
			C19.744,4.627,15.375,0.256,10,0.256z"/>
		<path fill="#FFFFFF" d="M4.342,1.166c1.104,0,1.997,0.894,1.997,1.997c0,1.104-0.893,1.997-1.997,1.997
			c-1.103,0-1.998-0.893-1.998-1.997C2.345,2.06,3.241,1.166,4.342,1.166z"/>
	</g>
</g>
</svg>
