<?xml version="1.0" encoding="utf-8"?>
<!-- Generator: Adobe Illustrator 16.0.0, SVG Export Plug-In . SVG Version: 6.00 Build 0)  -->
<!DOCTYPE svg PUBLIC "-//W3C//DTD SVG 1.1//EN" "http://www.w3.org/Graphics/SVG/1.1/DTD/svg11.dtd">
<svg version="1.1" id="Capa_1" xmlns="http://www.w3.org/2000/svg" xmlns:xlink="http://www.w3.org/1999/xlink" x="0px" y="0px"
	 width="20px" height="20px" viewBox="258.036 258.035 20 20" enable-background="new 258.036 258.035 20 20" xml:space="preserve">
<g>
	<path fill="#FFFFFF" d="M263.541,261.762c0-1.411,1.143-2.554,2.555-2.554c1.411,0,2.555,1.144,2.555,2.554
		s-1.145,2.555-2.555,2.555C264.684,264.316,263.541,263.172,263.541,261.762z M267.323,266.057
		c0.026-0.556,0.217-1.071,0.525-1.497c-0.216-0.045-0.439-0.069-0.669-0.069h-2.167c-0.229,0-0.452,0.024-0.667,0.068
		c0.327,0.455,0.523,1.01,0.527,1.611c0.398-0.219,0.856-0.343,1.341-0.343C266.608,265.827,266.982,265.908,267.323,266.057z
		 M267.755,266.286c0.742,0.465,1.263,1.252,1.357,2.166c0.303,0.142,0.638,0.223,0.995,0.223c1.299,0,2.353-1.054,2.353-2.354
		c0-1.3-1.054-2.354-2.353-2.354C268.819,263.968,267.775,265.003,267.755,266.286z M266.213,271.105c1.3,0,2.354-1.055,2.354-2.354
		s-1.054-2.354-2.354-2.354s-2.354,1.054-2.354,2.354S264.914,271.105,266.213,271.105z M267.212,271.267h-1.997
		c-1.662,0-3.014,1.351-3.014,3.012v2.443l0.007,0.038l0.168,0.053c1.586,0.494,2.963,0.66,4.098,0.66
		c2.213,0,3.498-0.632,3.578-0.672l0.157-0.079h0.018v-2.443C270.226,272.617,268.873,271.267,267.212,271.267z M271.107,268.835
		h-1.983c-0.021,0.793-0.359,1.507-0.895,2.021c1.478,0.439,2.558,1.81,2.558,3.427v0.753c1.956-0.072,3.084-0.626,3.158-0.663
		l0.158-0.08h0.016v-2.443C274.119,270.188,272.767,268.835,271.107,268.835z M271.635,263.917c0.743,0.466,1.263,1.252,1.358,2.167
		c0.301,0.142,0.638,0.222,0.994,0.222c1.3,0,2.354-1.052,2.354-2.352c0-1.301-1.054-2.354-2.354-2.354
		C272.699,261.6,271.656,262.635,271.635,263.917z M274.986,266.468h-1.981c-0.021,0.792-0.36,1.506-0.895,2.02
		c1.478,0.439,2.557,1.81,2.557,3.427v0.753c1.956-0.071,3.084-0.626,3.159-0.664l0.157-0.079H278v-2.443
		C278,267.818,276.648,266.468,274.986,266.468z M262.084,268.675c0.46,0,0.889-0.134,1.252-0.363
		c0.115-0.753,0.519-1.41,1.094-1.858c0.003-0.044,0.007-0.087,0.007-0.132c0-1.3-1.054-2.354-2.353-2.354
		c-1.3,0-2.354,1.053-2.354,2.354C259.73,267.621,260.784,268.675,262.084,268.675z M264.198,270.855
		c-0.533-0.51-0.87-1.221-0.895-2.009c-0.074-0.006-0.146-0.012-0.221-0.012h-1.996c-1.662,0-3.014,1.353-3.014,3.015v2.442
		l0.006,0.038l0.168,0.052c1.271,0.398,2.408,0.58,3.394,0.639v-0.739C261.64,272.665,262.721,271.295,264.198,270.855z"/>
</g>
</svg>
