<?xml version="1.0" encoding="utf-8"?>
<!-- Generator: Adobe Illustrator 16.0.0, SVG Export Plug-In . SVG Version: 6.00 Build 0)  -->
<!DOCTYPE svg PUBLIC "-//W3C//DTD SVG 1.1//EN" "http://www.w3.org/Graphics/SVG/1.1/DTD/svg11.dtd">
<svg version="1.1" id="Capa_1" xmlns="http://www.w3.org/2000/svg" xmlns:xlink="http://www.w3.org/1999/xlink" x="0px" y="0px"
	 width="20px" height="20px" viewBox="235.869 235.869 20 20" enable-background="new 235.869 235.869 20 20" xml:space="preserve">
<g>
	<g>
		<path fill="#FFFFFF" d="M241.939,241.559c1.531,0,2.776-1.246,2.776-2.776c0-1.531-1.245-2.776-2.776-2.776
			s-2.777,1.245-2.777,2.776C239.162,240.313,240.408,241.559,241.939,241.559z"/>
		<polygon fill="#FFFFFF" points="243.794,242.273 240.084,242.273 238.119,251.56 238.115,251.585 240.269,251.585 
			240.269,255.869 243.609,255.869 243.609,251.585 245.763,251.585 243.796,242.291 		"/>
		<path fill="#FFFFFF" d="M250.595,241.559c1.531,0,2.775-1.246,2.775-2.776c0-1.531-1.244-2.776-2.775-2.776
			c-1.53,0-2.776,1.245-2.776,2.776C247.819,240.313,249.065,241.559,250.595,241.559z"/>
		<polygon fill="#FFFFFF" points="253.583,242.255 247.613,242.253 247.611,251.546 247.606,251.572 248.924,251.572 
			248.924,255.857 252.265,255.857 252.265,251.572 253.583,251.572 		"/>
	</g>
</g>
</svg>
