<?xml version="1.0" encoding="utf-8"?>
<!-- Generator: Adobe Illustrator 16.0.0, SVG Export Plug-In . SVG Version: 6.00 Build 0)  -->
<!DOCTYPE svg PUBLIC "-//W3C//DTD SVG 1.1//EN" "http://www.w3.org/Graphics/SVG/1.1/DTD/svg11.dtd">
<svg version="1.1" id="Capa_1" xmlns="http://www.w3.org/2000/svg" xmlns:xlink="http://www.w3.org/1999/xlink" x="0px" y="0px"
	 width="20px" height="20px" viewBox="-5 -5 20 20" enable-background="new -5 -5 20 20" xml:space="preserve">
<g>
	<g>
		<path fill="#FFFFFF" d="M12.565,4.698c0,0-10.368,0-13.222,0l0.441-0.313C3.067,2.488,10.33-2.068,10.33-2.068
			c0.3-0.175,0.403-0.561,0.231-0.862L9.93-4.486c-0.174-0.302-0.561-0.405-0.863-0.23L-2.882,2.542
			c-0.302,0.176-0.403,0.563-0.231,0.865l1.145,1.239l0.008,9.522c0,0.35,0.284,0.633,0.632,0.633h13.893
			c0.349,0,0.63-0.283,0.63-0.633v-8.84C13.195,4.982,12.912,4.698,12.565,4.698z M7.982,5.444L6.034,7.339H3.508l1.895-1.895H7.982
			z M7.162-2.99l2.241-1.438L9.074-2.315L6.781-0.845L7.162-2.99z M3.167-0.532l2.281-1.42l-0.41,2.138L2.76,1.608L3.167-0.532z
			 M-1.379,4.198l0.382-2.146l2.263-1.446L0.881,2.749L-1.379,4.198z M0.984,5.444h2.525L1.615,7.339h-2.526L0.984,5.444z
			 M10.495,7.339H7.93l1.895-1.893h2.508L10.495,7.339z"/>
	</g>
</g>
</svg>
