<?xml version="1.0" encoding="utf-8"?>
<!-- Generator: Adobe Illustrator 16.0.0, SVG Export Plug-In . SVG Version: 6.00 Build 0)  -->
<!DOCTYPE svg PUBLIC "-//W3C//DTD SVG 1.1//EN" "http://www.w3.org/Graphics/SVG/1.1/DTD/svg11.dtd">
<svg version="1.1" id="Capa_1" xmlns="http://www.w3.org/2000/svg" xmlns:xlink="http://www.w3.org/1999/xlink" x="0px" y="0px"
	 width="20px" height="20px" viewBox="-5 -5 20 20" enable-background="new -5 -5 20 20" xml:space="preserve">
<g>
	<path fill="#FFFFFF" d="M5,14.917c-4.955,0-8.985-4.034-8.985-8.988c0-4.954,4.031-8.987,8.985-8.987
		c0.329,0,0.662,0.019,0.992,0.056v-1.452c0-0.187,0.116-0.357,0.286-0.429C6.455-4.952,6.65-4.914,6.786-4.78l3.182,3.191
		c0.181,0.181,0.181,0.469,0,0.653L6.786,2.263c-0.136,0.131-0.331,0.172-0.508,0.1C6.108,2.29,5.992,2.122,5.992,1.936v-1.61
		C5.663,0.264,5.332,0.237,5,0.237c-3.139,0-5.693,2.554-5.693,5.692c0,3.137,2.555,5.691,5.693,5.691s5.69-2.555,5.69-5.691
		c0-0.255,0.21-0.463,0.465-0.463h2.365c0.258,0,0.465,0.208,0.465,0.463C13.985,10.883,9.951,14.917,5,14.917z"/>
</g>
</svg>
