<?xml version="1.0" encoding="utf-8"?>
<!-- Generator: Adobe Illustrator 16.0.0, SVG Export Plug-In . SVG Version: 6.00 Build 0)  -->
<!DOCTYPE svg PUBLIC "-//W3C//DTD SVG 1.1//EN" "http://www.w3.org/Graphics/SVG/1.1/DTD/svg11.dtd">
<svg version="1.1" id="Capa_1" xmlns="http://www.w3.org/2000/svg" xmlns:xlink="http://www.w3.org/1999/xlink" x="0px" y="0px"
	 width="20px" height="20px" viewBox="15 15 20 20" enable-background="new 15 15 20 20" xml:space="preserve">
<g>
	<g id="Layer_5_87_">
		<g>
			<path fill="#FFCC00" d="M20.257,27.456c-0.3-0.3-0.413-0.149-0.48-0.082c-1.728,1.729-3.262,5.896-2.45,5.49
				c2.952-1.482,3.444-1.042,5.172-2.769c0.067-0.067,0.221-0.177-0.089-0.486L20.257,27.456z"/>
			<path fill="#FFCC00" d="M29.571,27.434c-0.077-0.25,0.087-0.369,0.155-0.443c3.814-4.119,6.238-9.604,4.442-11.4
				c-1.787-1.787-7.104,0.708-11.22,4.494c-0.081,0.075-0.242,0.217-0.528,0.157l-1.283-0.305c-0.356-0.084-0.859,0.057-1.118,0.317
				l-4.706,4.706c-0.259,0.259-0.174,0.516,0.187,0.573l3.404,0.536c0.361,0.056,0.869-0.109,1.127-0.368c0,0,0.175-0.176,0.352,0
				c0.974,0.974,2.782,2.782,3.709,3.709c0.185,0.185,0.008,0.361,0.008,0.361c-0.258,0.259-0.424,0.765-0.367,1.126l0.534,3.405
				c0.057,0.36,0.316,0.444,0.574,0.187l4.706-4.705c0.258-0.261,0.401-0.762,0.316-1.118L29.571,27.434z M28.519,21.354
				c-0.797-0.797-0.797-2.089,0-2.886c0.797-0.797,2.088-0.797,2.887,0c0.796,0.797,0.796,2.089,0,2.886
				C30.606,22.151,29.315,22.151,28.519,21.354z"/>
		</g>
	</g>
</g>
</svg>
