<?xml version="1.0" encoding="utf-8"?>
<!-- Generator: Adobe Illustrator 16.0.0, SVG Export Plug-In . SVG Version: 6.00 Build 0)  -->
<!DOCTYPE svg PUBLIC "-//W3C//DTD SVG 1.1//EN" "http://www.w3.org/Graphics/SVG/1.1/DTD/svg11.dtd">
<svg version="1.1" id="Capa_1" xmlns="http://www.w3.org/2000/svg" xmlns:xlink="http://www.w3.org/1999/xlink" x="0px" y="0px"
	 width="20px" height="20px" viewBox="15 15 20 20" enable-background="new 15 15 20 20" xml:space="preserve">
<g>
	<g>
		<path fill="#FFFFFF" d="M25,25.587c2.458,0,4.45-2.333,4.45-5.209c0-3.989-1.992-5.209-4.45-5.209s-4.451,1.22-4.451,5.209
			C20.549,23.254,22.542,25.587,25,25.587z"/>
		<path fill="#FFFFFF" d="M34.828,33.255l-2.246-5.06c-0.102-0.23-0.283-0.424-0.508-0.541l-3.484-1.813
			c-0.076-0.04-0.17-0.033-0.238,0.02c-0.984,0.746-2.145,1.142-3.352,1.142s-2.366-0.396-3.352-1.142
			c-0.068-0.053-0.162-0.06-0.238-0.02l-3.484,1.813c-0.225,0.117-0.404,0.311-0.508,0.541l-2.245,5.06
			c-0.155,0.349-0.123,0.747,0.084,1.067c0.208,0.318,0.56,0.51,0.941,0.51h17.604c0.382,0,0.733-0.189,0.94-0.512
			C34.951,34.002,34.982,33.604,34.828,33.255z"/>
	</g>
</g>
</svg>
