<?xml version="1.0" encoding="utf-8"?>
<!-- Generator: Adobe Illustrator 16.0.0, SVG Export Plug-In . SVG Version: 6.00 Build 0)  -->
<!DOCTYPE svg PUBLIC "-//W3C//DTD SVG 1.1//EN" "http://www.w3.org/Graphics/SVG/1.1/DTD/svg11.dtd">
<svg version="1.1" id="Capa_1" xmlns="http://www.w3.org/2000/svg" xmlns:xlink="http://www.w3.org/1999/xlink" x="0px" y="0px"
	 width="20px" height="20px" viewBox="15 15 20 20" enable-background="new 15 15 20 20" xml:space="preserve">
<g>
	<path fill="#FFCC00" d="M34.577,17.809c-0.188-0.711-0.915-1.136-1.626-0.949c-0.713,0.188-1.139,0.916-0.949,1.627
		c0.088,0.334,0.295,0.604,0.564,0.778c-0.065,0.978-0.357,2.168-1.218,3.209c-2.426-2.768-3.45-3.898-3.924-4.355
		c0.254-0.16,0.467-0.26,0.608-0.316c0.319,0.267,0.759,0.381,1.192,0.267c0.711-0.187,1.136-0.916,0.948-1.626
		c-0.189-0.711-0.917-1.137-1.627-0.951c-0.535,0.141-0.907,0.585-0.981,1.099c-1.003,0.426-4.427,2.321-3.917,8.227
		c-3.75,0.108-5.722,1.102-6.62,1.75c-0.23-0.072-0.483-0.084-0.734-0.02c-0.711,0.189-1.136,0.918-0.95,1.629
		c0.188,0.713,0.917,1.139,1.627,0.947c0.586-0.154,0.978-0.676,0.992-1.252l3.92,4.115c-0.092,0.057-0.183,0.109-0.27,0.156
		c-0.313-0.229-0.721-0.32-1.125-0.215c-0.711,0.189-1.136,0.918-0.949,1.629c0.188,0.711,0.917,1.137,1.628,0.949
		c0.555-0.145,0.933-0.621,0.985-1.164c1.834-0.91,3.354-3.146,2.957-7.229c1.177-0.006,2.261-0.137,3.236-0.395
		c1.458-0.383,2.67-1.04,3.588-1.956c1.156-1.158,1.817-2.674,1.931-4.417C34.43,19.077,34.743,18.437,34.577,17.809z
		 M22.406,31.588l-4.091-4.293c0.263-0.143,0.587-0.295,0.989-0.441l3.833,3.818C22.917,31.049,22.666,31.35,22.406,31.588z
		 M23.437,30.051l-3.433-3.422c0.527-0.146,1.152-0.279,1.884-0.371l1.964,1.875C23.794,28.896,23.645,29.529,23.437,30.051z
		 M22.742,26.17c0.334-0.025,0.688-0.043,1.061-0.053c0.044,0.404,0.067,0.781,0.073,1.135L22.742,26.17z M24.958,24.813
		c-0.085-0.896-0.072-1.684,0.012-2.375l1.917,2.249C26.284,24.775,25.639,24.817,24.958,24.813z M27.63,24.555l-2.516-2.95
		c0.135-0.583,0.321-1.083,0.54-1.508c0.817,0.882,2.336,2.594,3.536,3.961C28.715,24.266,28.191,24.432,27.63,24.555z
		 M29.794,23.758c-2.13-2.431-3.216-3.643-3.796-4.245c0.291-0.426,0.604-0.757,0.903-1.01c0.514,0.508,2.504,2.748,3.999,4.45
		C30.577,23.257,30.205,23.526,29.794,23.758z"/>
</g>
</svg>
