<?xml version="1.0" encoding="utf-8"?>
<!-- Generator: Adobe Illustrator 16.0.0, SVG Export Plug-In . SVG Version: 6.00 Build 0)  -->
<!DOCTYPE svg PUBLIC "-//W3C//DTD SVG 1.1//EN" "http://www.w3.org/Graphics/SVG/1.1/DTD/svg11.dtd">
<svg version="1.1" id="Capa_1" xmlns="http://www.w3.org/2000/svg" xmlns:xlink="http://www.w3.org/1999/xlink" x="0px" y="0px"
	 width="20px" height="20px" viewBox="-5 -5 20 20" enable-background="new -5 -5 20 20" xml:space="preserve">
<g>
	<g>
		<path fill="#FFFFFF" d="M0.726,5.835c0.004-0.064-0.018-0.128-0.06-0.176l-1.923-2.188C-1.3,3.423-1.359,3.394-1.424,3.39
			C-1.488,3.385-1.552,3.406-1.6,3.449c-0.884,0.776-1.617,1.692-2.18,2.723C-3.811,6.228-3.817,6.295-3.8,6.356
			c0.019,0.062,0.061,0.113,0.116,0.145l2.557,1.396c0.036,0.021,0.076,0.03,0.116,0.03c0.085,0,0.169-0.046,0.213-0.127
			c0.372-0.68,0.857-1.286,1.441-1.8C0.692,5.959,0.722,5.898,0.726,5.835z"/>
		<path fill="#FFFFFF" d="M1.584,5.024c0.043,0.082,0.127,0.129,0.215,0.129c0.038,0,0.077-0.009,0.113-0.028
			c0.685-0.363,1.422-0.601,2.19-0.704C4.235,4.402,4.328,4.28,4.311,4.147L3.919,1.262C3.9,1.129,3.778,1.035,3.646,1.054
			C2.479,1.212,1.359,1.571,0.319,2.123c-0.118,0.063-0.163,0.21-0.101,0.328L1.584,5.024z"/>
		<path fill="#FFFFFF" d="M-1.543,8.931l-2.811-0.763C-4.416,8.15-4.482,8.159-4.538,8.191s-0.097,0.085-0.113,0.146
			C-4.883,9.191-5,10.074-5,10.961c0,0.152,0.004,0.305,0.011,0.469c0.007,0.129,0.114,0.23,0.243,0.23c0.003,0,0.007,0,0.011,0
			l2.91-0.135c0.063-0.002,0.124-0.031,0.168-0.078c0.043-0.049,0.065-0.111,0.063-0.174c-0.005-0.109-0.007-0.211-0.007-0.313
			c0-0.588,0.077-1.172,0.229-1.734C-1.337,9.098-1.414,8.965-1.543,8.931z"/>
		<path fill="#FFFFFF" d="M9.338,1.95C8.277,1.439,7.146,1.123,5.974,1.009C5.909,1.003,5.846,1.022,5.796,1.063
			s-0.081,0.1-0.087,0.164L5.428,4.126C5.415,4.26,5.513,4.379,5.646,4.392c0.771,0.074,1.518,0.283,2.217,0.619
			c0.031,0.016,0.068,0.024,0.105,0.024c0.025,0,0.053-0.005,0.078-0.014C8.109,5,8.158,4.955,8.188,4.897l1.264-2.624
			C9.508,2.153,9.457,2.008,9.338,1.95z"/>
		<path fill="#FFFFFF" d="M13.615,6.021c0.018-0.063,0.006-0.129-0.025-0.184c-0.604-1.008-1.371-1.896-2.285-2.637
			c-0.049-0.041-0.113-0.06-0.176-0.054c-0.064,0.007-0.125,0.038-0.164,0.089l-1.838,2.26c-0.041,0.05-0.061,0.113-0.053,0.178
			C9.08,5.737,9.113,5.797,9.162,5.837c0.604,0.491,1.111,1.078,1.51,1.744c0.047,0.076,0.125,0.118,0.209,0.118
			c0.041,0,0.084-0.011,0.123-0.034l2.5-1.494C13.561,6.138,13.6,6.084,13.615,6.021z"/>
		<path fill="#FFFFFF" d="M14.543,7.969c-0.039-0.127-0.176-0.199-0.303-0.158l-2.779,0.87c-0.129,0.04-0.199,0.177-0.16,0.305
			c0.199,0.636,0.301,1.302,0.301,1.976c0,0.102-0.002,0.203-0.008,0.313c-0.002,0.063,0.02,0.125,0.063,0.174
			c0.045,0.047,0.105,0.076,0.17,0.078l2.908,0.135c0.004,0,0.008,0,0.012,0c0.129,0,0.236-0.102,0.242-0.23
			C14.996,11.266,15,11.113,15,10.961C15,9.941,14.848,8.936,14.543,7.969z"/>
		<path fill="#FFFFFF" d="M4.991,10.447c-0.042,0-0.083,0.002-0.125,0.002L0.924,8.124c-0.097-0.057-0.219-0.043-0.3,0.035
			C0.543,8.236,0.523,8.358,0.576,8.457l2.15,4.031c-0.008,0.078-0.012,0.156-0.012,0.234c0,0.609,0.236,1.18,0.667,1.609
			C3.812,14.762,4.384,15,4.991,15c0.608,0,1.181-0.238,1.61-0.668s0.666-1,0.666-1.609c0-0.607-0.236-1.18-0.666-1.609
			S5.6,10.447,4.991,10.447z"/>
	</g>
</g>
</svg>
