<?xml version="1.0" encoding="utf-8"?>
<!-- Generator: Adobe Illustrator 16.0.0, SVG Export Plug-In . SVG Version: 6.00 Build 0)  -->
<!DOCTYPE svg PUBLIC "-//W3C//DTD SVG 1.1//EN" "http://www.w3.org/Graphics/SVG/1.1/DTD/svg11.dtd">
<svg version="1.1" id="Capa_1" xmlns="http://www.w3.org/2000/svg" xmlns:xlink="http://www.w3.org/1999/xlink" x="0px" y="0px"
	 width="20px" height="20px" viewBox="-5 -5 20 20" enable-background="new -5 -5 20 20" xml:space="preserve">
<path fill="#FFFFFF" d="M14.879,13.293L7.234-4.487C7.121-4.756,6.939-4.915,6.746-4.915c-0.191,0-0.373,0.159-0.488,0.428
	L3.09,2.884L1.831-0.043C1.716-0.313,1.535-0.469,1.343-0.469S0.97-0.313,0.854-0.043l-5.731,13.336
	c-0.139,0.324-0.161,0.754-0.058,1.114C-4.832,14.769-4.62,15-4.389,15h18.777c0.232,0,0.443-0.231,0.547-0.593
	C15.039,14.047,15.016,13.617,14.879,13.293z M-3.168,12.866L1.343,2.373l1.258,2.928C2.716,5.568,2.897,5.728,3.09,5.728
	c0.191,0,0.373-0.159,0.488-0.427l3.168-7.374l6.422,14.939H-3.168z"/>
</svg>
